<?xml version="1.0" encoding="UTF-8"?>
<svg xmlns="http://www.w3.org/2000/svg" version="1.1" width="200" height="200" viewBox="0 0 200 200"><rect x="0" y="0" width="200" height="200" fill="#ffffff"/><g transform="scale(6.897)"><g transform="translate(0,0)"><path fill-rule="evenodd" d="M9 0L9 1L8 1L8 2L9 2L9 3L8 3L8 4L10 4L10 7L11 7L11 4L12 4L12 5L13 5L13 4L14 4L14 5L15 5L15 6L14 6L14 8L13 8L13 6L12 6L12 9L14 9L14 10L11 10L11 11L10 11L10 9L11 9L11 8L6 8L6 9L7 9L7 10L6 10L6 11L5 11L5 8L0 8L0 9L1 9L1 11L3 11L3 12L2 12L2 13L3 13L3 14L2 14L2 15L1 15L1 12L0 12L0 15L1 15L1 17L0 17L0 21L1 21L1 17L2 17L2 18L4 18L4 19L2 19L2 20L4 20L4 21L7 21L7 20L6 20L6 19L8 19L8 20L11 20L11 18L12 18L12 19L13 19L13 18L12 18L12 17L14 17L14 18L15 18L15 19L14 19L14 20L12 20L12 21L11 21L11 22L9 22L9 21L8 21L8 23L9 23L9 24L8 24L8 29L9 29L9 27L10 27L10 26L12 26L12 25L13 25L13 26L14 26L14 28L13 28L13 27L11 27L11 28L10 28L10 29L11 29L11 28L12 28L12 29L16 29L16 28L15 28L15 27L17 27L17 26L18 26L18 27L19 27L19 28L22 28L22 27L23 27L23 26L24 26L24 27L26 27L26 26L24 26L24 25L27 25L27 28L24 28L24 29L27 29L27 28L28 28L28 26L29 26L29 23L28 23L28 25L27 25L27 24L25 24L25 23L27 23L27 22L29 22L29 20L28 20L28 19L27 19L27 16L28 16L28 15L27 15L27 12L28 12L28 11L27 11L27 12L25 12L25 9L26 9L26 8L25 8L25 9L24 9L24 8L23 8L23 9L22 9L22 8L20 8L20 9L19 9L19 10L17 10L17 9L18 9L18 8L17 8L17 6L16 6L16 5L17 5L17 4L18 4L18 5L20 5L20 3L21 3L21 0L18 0L18 1L14 1L14 0L13 0L13 1L11 1L11 2L10 2L10 0ZM19 1L19 2L15 2L15 3L14 3L14 2L12 2L12 4L13 4L13 3L14 3L14 4L15 4L15 5L16 5L16 4L15 4L15 3L18 3L18 4L19 4L19 2L20 2L20 1ZM10 3L10 4L11 4L11 3ZM8 5L8 7L9 7L9 5ZM15 6L15 8L14 8L14 9L15 9L15 10L14 10L14 11L12 11L12 12L14 12L14 14L16 14L16 13L17 13L17 15L16 15L16 16L15 16L15 18L16 18L16 19L17 19L17 20L18 20L18 21L17 21L17 22L18 22L18 23L16 23L16 25L15 25L15 22L16 22L16 21L15 21L15 22L14 22L14 21L12 21L12 22L11 22L11 23L10 23L10 24L9 24L9 25L11 25L11 23L12 23L12 24L14 24L14 26L16 26L16 25L17 25L17 24L18 24L18 25L19 25L19 27L20 27L20 23L19 23L19 22L18 22L18 21L19 21L19 20L21 20L21 19L22 19L22 18L21 18L21 17L20 17L20 16L21 16L21 14L22 14L22 17L23 17L23 18L24 18L24 19L25 19L25 21L26 21L26 20L27 20L27 19L25 19L25 18L24 18L24 17L26 17L26 16L27 16L27 15L26 15L26 13L25 13L25 12L24 12L24 9L23 9L23 12L22 12L22 13L20 13L20 12L21 12L21 11L22 11L22 10L21 10L21 9L20 9L20 10L19 10L19 12L18 12L18 11L17 11L17 12L16 12L16 11L15 11L15 10L16 10L16 9L17 9L17 8L16 8L16 6ZM18 6L18 7L19 7L19 6ZM20 6L20 7L21 7L21 6ZM27 8L27 9L28 9L28 10L29 10L29 9L28 9L28 8ZM7 10L7 11L6 11L6 12L8 12L8 13L5 13L5 12L3 12L3 13L4 13L4 14L3 14L3 15L2 15L2 16L4 16L4 14L7 14L7 15L6 15L6 16L7 16L7 17L5 17L5 19L6 19L6 18L8 18L8 19L10 19L10 18L9 18L9 17L12 17L12 16L14 16L14 15L13 15L13 14L12 14L12 13L11 13L11 12L10 12L10 13L11 13L11 15L10 15L10 16L9 16L9 17L8 17L8 16L7 16L7 15L8 15L8 13L9 13L9 10ZM14 11L14 12L15 12L15 11ZM17 12L17 13L18 13L18 12ZM23 12L23 13L22 13L22 14L23 14L23 13L24 13L24 14L25 14L25 13L24 13L24 12ZM19 13L19 14L20 14L20 13ZM28 13L28 14L29 14L29 13ZM18 15L18 16L17 16L17 17L16 17L16 18L18 18L18 19L19 19L19 18L20 18L20 17L18 17L18 16L19 16L19 15ZM23 15L23 16L24 16L24 15ZM28 17L28 18L29 18L29 17ZM21 21L21 24L24 24L24 21ZM13 22L13 23L14 23L14 22ZM22 22L22 23L23 23L23 22ZM18 23L18 24L19 24L19 23ZM22 25L22 26L21 26L21 27L22 27L22 26L23 26L23 25ZM17 28L17 29L18 29L18 28ZM0 0L0 7L7 7L7 0ZM1 1L1 6L6 6L6 1ZM2 2L2 5L5 5L5 2ZM22 0L22 7L29 7L29 0ZM23 1L23 6L28 6L28 1ZM24 2L24 5L27 5L27 2ZM0 22L0 29L7 29L7 22ZM1 23L1 28L6 28L6 23ZM2 24L2 27L5 27L5 24Z" fill="#000000"/></g></g></svg>
